<?xml version="1.0" encoding="utf-8"?>
<!-- Generator: Adobe Illustrator 17.0.0, SVG Export Plug-In . SVG Version: 6.00 Build 0)  -->
<!DOCTYPE svg PUBLIC "-//W3C//DTD SVG 1.0//EN" "http://www.w3.org/TR/2001/REC-SVG-20010904/DTD/svg10.dtd" [
	<!ENTITY ns_flows "http://ns.adobe.com/Flows/1.0/">
	<!ENTITY ns_extend "http://ns.adobe.com/Extensibility/1.0/">
	<!ENTITY ns_ai "http://ns.adobe.com/AdobeIllustrator/10.0/">
	<!ENTITY ns_graphs "http://ns.adobe.com/Graphs/1.0/">
	<!ENTITY ns_vars "http://ns.adobe.com/Variables/1.0/">
	<!ENTITY ns_imrep "http://ns.adobe.com/ImageReplacement/1.0/">
	<!ENTITY ns_sfw "http://ns.adobe.com/SaveForWeb/1.0/">
	<!ENTITY ns_custom "http://ns.adobe.com/GenericCustomNamespace/1.0/">
	<!ENTITY ns_adobe_xpath "http://ns.adobe.com/XPath/1.0/">
]>
<svg version="1.0" id="Layer_1" xmlns:x="&ns_extend;" xmlns:i="&ns_ai;" xmlns:graph="&ns_graphs;"
	 xmlns="http://www.w3.org/2000/svg" xmlns:xlink="http://www.w3.org/1999/xlink" xmlns:a="http://ns.adobe.com/AdobeSVGViewerExtensions/3.0/"
	 x="0px" y="0px" width="1400px" height="980px" viewBox="0 0 1400 980" enable-background="new 0 0 1400 980" xml:space="preserve"
	>
<metadata>
	<sfw  xmlns="&ns_sfw;">
		<slices></slices>
		<sliceSourceBounds  width="1400" height="980" bottomLeftOrigin="true" x="0" y="-980"></sliceSourceBounds>
	</sfw>
</metadata>
<g>
	<rect fill="#25813F" width="1400" height="980"/>
</g>
<g>
	<g>
		<rect x="101.2" y="133.1" fill="#39B54A" width="66.4" height="713.8"/>
	</g>
	<g>
		<rect x="167.8" y="133.1" fill="#009444" width="66.4" height="713.8"/>
	</g>
	<g>
		<rect x="234.3" y="133.1" fill="#39B54A" width="66.4" height="713.8"/>
	</g>
	<g>
		<rect x="300.8" y="133.1" fill="#009444" width="66.4" height="713.8"/>
	</g>
	<g>
		<rect x="367.4" y="133.1" fill="#39B54A" width="66.4" height="713.8"/>
	</g>
	<g>
		<rect x="433.9" y="133.1" fill="#009444" width="66.4" height="713.8"/>
	</g>
	<g>
		<rect x="500.4" y="133.1" fill="#39B54A" width="66.4" height="713.8"/>
	</g>
	<g>
		<rect x="567" y="133.1" fill="#009444" width="66.4" height="713.8"/>
	</g>
	<g>
		<rect x="633.5" y="133.1" fill="#39B54A" width="66.4" height="713.8"/>
	</g>
	<g>
		<rect x="700" y="133.1" fill="#009444" width="66.4" height="713.8"/>
	</g>
	<g>
		<rect x="766.6" y="133.1" fill="#39B54A" width="66.4" height="713.8"/>
	</g>
	<g>
		<rect x="833.1" y="133.1" fill="#009444" width="66.4" height="713.8"/>
	</g>
	<g>
		<rect x="899.6" y="133.1" fill="#39B54A" width="66.4" height="713.8"/>
	</g>
	<g>
		<rect x="966.2" y="133.1" fill="#009444" width="66.4" height="713.8"/>
	</g>
	<g>
		<rect x="1032.7" y="133.1" fill="#39B54A" width="66.4" height="713.8"/>
	</g>
	<g>
		<rect x="1099.2" y="133.1" fill="#009444" width="66.4" height="713.8"/>
	</g>
	<g>
		<rect x="1165.8" y="133.1" fill="#39B54A" width="66.4" height="713.8"/>
	</g>
	<g>
		<rect x="1232.3" y="133.1" fill="#009444" width="66.4" height="713.8"/>
	</g>
</g>
<g>
	<path fill="#FFFFFF" d="M1350,426h-45.2v-21.4v-99V186.3v-59.2h-52.9l-5.9,0l0,0H154.1H95.2v59.2v119.3v99V426H50v128h45.2v21.4v99
		v119.3v59.2h52.9l6,0l0,0h1091.8h58.9v-59.2V674.4v-99V554h45.2V426z M1292.8,139.1v34.7c-17.9-2.6-32-16.9-34.5-34.7H1292.8z
		 M694,599.3c-57.6-3.1-103.5-51-103.5-109.3c0-58.4,45.9-106.2,103.5-109.3V599.3z M706,380.7c57.6,3.1,103.5,51,103.5,109.3
		c0,58.4-45.9,106.2-103.5,109.3V380.7z M107.2,139.1h34.5c-2.5,17.9-16.6,32.1-34.5,34.7V139.1z M62,542V438h33.2v104H62z
		 M107.2,426v-9.4h64.9v146.8h-64.9V554V426z M184.1,575.4V404.6h-76.9v-87h156.4v66.5v211.8v66.5H107.2v-87H184.1z M275.6,408.1
		c23.2,20.7,36.8,50.5,36.8,81.9s-13.6,61.2-36.8,81.9V408.1z M275.6,674.4v-87c30.6-22.9,48.8-59.1,48.8-97.4s-18.2-74.5-48.8-97.4
		v-87H107.2V185.9c24.5-2.8,44-22.3,46.6-46.8H694v229.5C629.8,371.8,578.5,425,578.5,490S629.8,608.2,694,611.3v229.5H153.8
		c-2.6-24.5-22.1-44.1-46.6-46.8V674.4H275.6z M107.2,840.9v-34.7c17.9,2.6,32,16.8,34.5,34.7H107.2z M1292.8,840.9h-34.5
		c2.5-17.9,16.6-32.1,34.5-34.7V840.9z M1292.8,794.1c-24.5,2.8-44,22.3-46.6,46.8H706V611.3c64.2-3.1,115.5-56.4,115.5-121.3
		S770.2,371.8,706,368.7V139.1h540.2c2.6,24.5,22.1,44.1,46.6,46.8v119.7h-168.4v87c-30.6,22.9-48.8,59.1-48.8,97.4
		s18.2,74.5,48.8,97.4v87h168.4V794.1z M1124.4,571.9c-23.2-20.7-36.8-50.5-36.8-81.9s13.6-61.2,36.8-81.9V571.9z M1292.8,662.4
		h-156.4v-66.5V384.1v-66.5h156.4v87h-76.9v170.8h76.9V662.4z M1292.8,563.4h-64.9V416.6h64.9v9.4h0v128h0V563.4z M1338,542h-33.2
		V438h33.2V542z"/>
	<circle fill="#FFFFFF" cx="214.9" cy="490" r="7.2"/>
	<circle fill="#FFFFFF" cx="1185.1" cy="490" r="7.2"/>
</g>
</svg>
